<?xml version="1.0" standalone="no"?>
<!DOCTYPE svg PUBLIC "-//W3C//DTD SVG 20010904//EN"
 "http://www.w3.org/TR/2001/REC-SVG-20010904/DTD/svg10.dtd">
<svg version="1.0" xmlns="http://www.w3.org/2000/svg"
 width="962.000000pt" height="428.000000pt" viewBox="0 0 962.000000 428.000000"
 preserveAspectRatio="xMidYMid meet">

<g transform="translate(0.000000,428.000000) scale(0.100000,-0.100000)"
fill="#000000" stroke="none">
<path d="M9352 3039 c-23 -48 -54 -131 -69 -185 -23 -86 -26 -120 -27 -259 -1
-177 10 -237 64 -354 32 -68 37 -100 18 -119 -7 -7 -8 -12 -2 -12 6 0 21 -19
35 -42 l24 -43 3 272 c1 149 1 397 0 550 l-3 278 -43 -86z"/>
<path d="M2338 2918 l-3 -123 -69 -3 c-41 -2 -74 -8 -82 -17 -10 -9 -14 -39
-14 -92 l0 -78 50 3 c27 2 65 -1 85 -8 l36 -12 -3 -314 c-2 -173 1 -314 6
-314 4 0 6 -9 3 -20 -3 -11 -1 -23 4 -26 5 -3 7 -10 4 -15 -4 -5 -2 -9 3 -9 5
0 12 -10 16 -22 7 -28 5 -25 41 -62 17 -17 33 -29 38 -28 4 1 7 -2 7 -8 0 -15
98 -40 155 -40 28 0 76 5 106 11 52 10 54 12 53 42 -1 18 -5 40 -9 50 -4 10
-5 30 -2 45 8 41 -13 62 -64 62 -43 0 -106 30 -92 43 3 4 1 7 -6 7 -7 0 -9 5
-6 10 3 6 1 10 -4 10 -8 0 -11 94 -11 294 l0 295 46 7 c25 3 66 4 92 2 l47 -5
0 94 0 93 -92 0 -93 0 0 125 0 125 -120 0 -119 0 -3 -122z"/>
<path d="M7562 2845 c-11 -13 -13 -124 -13 -563 0 -618 -4 -583 74 -556 121
43 247 144 305 245 83 147 111 291 82 424 -6 28 -12 58 -13 68 -1 9 -4 17 -8
17 -7 0 -23 50 -21 63 1 4 -2 7 -6 7 -9 0 -36 51 -32 59 1 2 -5 8 -14 13 -9 5
-16 13 -16 18 0 5 -31 39 -69 77 -101 100 -238 165 -269 128z"/>
<path d="M8633 2823 c-3 -7 -4 -62 -1 -123 3 -91 7 -113 24 -137 49 -66 154
-66 194 0 17 27 20 51 20 153 0 119 0 121 -22 120 -13 -1 -28 -10 -33 -21 -6
-11 -22 -26 -36 -34 -24 -13 -29 -13 -53 3 -15 9 -30 25 -34 34 -8 20 -52 24
-59 5z"/>
<path d="M423 2790 c-51 -11 -153 -58 -153 -71 0 -5 -3 -8 -7 -7 -5 1 -24 -14
-45 -35 -20 -20 -33 -37 -30 -37 4 0 0 -6 -8 -13 -8 -7 -17 -21 -18 -32 -2
-11 -7 -22 -10 -25 -4 -3 -7 -21 -7 -40 l0 -35 117 -3 117 -3 20 38 c29 58 54
76 116 81 30 2 69 1 87 -2 34 -7 96 -55 100 -78 2 -7 6 -15 9 -18 3 -3 3 -37
1 -76 l-4 -71 -133 -7 c-73 -4 -145 -9 -159 -12 -14 -2 -36 -6 -49 -8 -49 -8
-107 -30 -107 -39 0 -6 -3 -8 -6 -4 -3 3 -18 -5 -32 -18 -14 -13 -29 -22 -33
-19 -5 3 -20 -15 -35 -38 -15 -24 -31 -46 -36 -49 -5 -3 -9 -10 -8 -15 0 -5
-2 -18 -5 -29 -7 -26 -12 -165 -5 -165 6 0 30 -67 32 -87 1 -7 5 -13 10 -13 5
0 12 -8 15 -17 9 -23 29 -44 36 -37 3 3 12 -3 19 -15 7 -12 18 -21 24 -21 6 0
26 -8 45 -17 49 -25 211 -25 257 0 58 32 111 80 131 120 16 30 69 41 57 12 -3
-8 0 -15 5 -15 7 0 9 -11 7 -25 -3 -14 -1 -25 4 -25 6 0 8 -7 4 -15 -3 -8 -1
-15 5 -15 6 0 8 -7 5 -16 -3 -8 -2 -12 4 -9 6 3 10 1 10 -4 0 -7 43 -11 121
-11 109 0 121 2 115 17 -14 34 -27 107 -22 119 3 8 1 16 -5 20 -6 3 -9 108 -9
284 1 154 -1 283 -4 288 -3 5 -6 29 -8 55 -2 26 -7 47 -11 47 -5 0 -7 6 -4 13
2 6 -2 17 -9 22 -7 6 -14 16 -16 24 -6 26 -114 116 -164 135 -56 21 -259 31
-331 16z m289 -665 c2 -47 -1 -85 -5 -85 -5 0 -6 -4 -3 -8 7 -11 -79 -76 -124
-94 -113 -45 -230 11 -230 111 0 62 38 122 95 147 19 8 72 13 147 14 l117 0 3
-85z"/>
<path d="M3255 2793 c-100 -22 -200 -83 -245 -150 -84 -124 -110 -213 -110
-375 0 -122 15 -198 54 -283 26 -55 114 -163 134 -164 6 -1 12 -5 12 -9 0 -15
76 -51 141 -67 76 -18 178 -19 250 -4 57 12 131 43 151 62 7 7 25 20 40 30 46
29 125 144 134 195 3 15 9 31 15 38 5 6 6 14 3 17 -3 3 -2 11 2 18 10 17 13
46 13 164 0 121 -3 148 -23 203 -8 23 -15 44 -16 47 -1 13 -36 80 -42 83 -5 2
-8 8 -8 12 0 15 -84 102 -122 126 -71 45 -149 64 -260 63 -57 -1 -112 -3 -123
-6z m219 -215 c57 -29 129 -139 111 -168 -3 -5 -1 -10 6 -10 7 0 9 -10 6 -30
-4 -16 -2 -32 3 -35 12 -7 13 -132 2 -139 -5 -3 -7 -19 -4 -36 2 -17 0 -30 -6
-30 -6 0 -8 -8 -5 -19 2 -10 -2 -25 -11 -33 -8 -9 -12 -19 -8 -23 4 -3 -2 -13
-12 -21 -11 -8 -16 -14 -11 -14 18 0 -57 -61 -93 -76 -42 -17 -125 -16 -163 3
-33 16 -99 88 -99 107 0 8 -4 17 -9 20 -25 16 -36 221 -17 327 17 102 83 181
162 196 50 9 108 2 148 -19z"/>
<path d="M1170 2467 c-1 -342 7 -436 41 -530 23 -60 100 -157 125 -157 8 0 14
-4 14 -8 0 -5 27 -17 60 -27 100 -30 240 -6 297 51 8 7 20 17 27 21 6 5 22 25
35 46 24 39 57 48 55 14 -1 -9 3 -17 8 -17 6 0 8 -11 6 -25 -3 -14 -1 -25 5
-25 5 0 7 -11 5 -24 -6 -33 5 -36 112 -36 72 0 89 3 94 16 4 9 6 243 6 520
l-1 504 -124 0 -125 0 0 -378 0 -378 -32 -32 c-43 -41 -100 -64 -168 -67 -68
-4 -124 23 -154 75 -20 33 -21 52 -24 385 -1 193 -5 360 -7 373 -5 21 -9 22
-130 22 l-124 0 -1 -323z"/>
</g>
</svg>
